<svg width="39.77" height="35" xmlns="http://www.w3.org/2000/svg" data-name="Layer 1">

 <g>
  <title>Layer 1</title>
  <path fill="#00fcfd" d="m39.61,0.5c-0.13,0 -2.95,2.74 -6.29,6.09l-5.3,5.3c-0.45,0.45 -1.18,0.45 -1.63,0l-5.55,-5.55l-6.05,-6c-0.22,-0.22 -0.51,-0.34 -0.82,-0.34l-6.68,0c-1.01,0 -1.53,1.21 -0.84,1.95c0.05,0.05 0.09,0.1 0.13,0.14c0.02,0.01 0.03,0.03 0.04,0.04c0.02,0.02 0.03,0.04 0.05,0.06c0.04,0.04 0.08,0.09 0.12,0.13c0.03,0.02 0.06,0.05 0.08,0.07c0.02,0.02 0.03,0.04 0.05,0.06c0,0 0,0 0,0c0.01,0.02 0.03,0.03 0.04,0.04c0.02,0.02 0.03,0.03 0.05,0.04c0.02,0.02 0.04,0.04 0.05,0.06c0.07,0.07 0.13,0.14 0.19,0.21c0.04,0.04 0.08,0.08 0.12,0.12c0.03,0.02 0.05,0.05 0.07,0.07c0.03,0.02 0.05,0.05 0.07,0.08c0.06,0.07 0.13,0.14 0.19,0.2c0.02,0.02 0.04,0.04 0.06,0.06l0,0s0.07,0.07 0.1,0.11l0,0s0.04,0.05 0.06,0.06s0.04,0.04 0.06,0.06c0.02,0.02 0.03,0.03 0.04,0.05l0,0c0.11,0.11 0.21,0.23 0.32,0.34c0,0 0.01,0 0.02,0.01l0,0s0,0 0,0l0,0s0.02,0.02 0.02,0.03c0.42,0.44 0.87,0.92 1.35,1.44c0,0 0.02,0.02 0.02,0.02c1.68,1.79 3.78,4.02 6.21,6.6l10.39,10.39c0.45,0.45 1.18,0.45 1.63,0l1.52,-1.52c1.28,-1.26 2.42,-2.32 2.52,-2.32c0.08,0 0.2,3.65 0.23,8.11l0.07,7.01c0,0.62 0.51,1.13 1.13,1.15l2.6,0.05l2.52,0.05c0.65,0.01 1.18,-0.51 1.18,-1.16l0,-16.09c0,-9.49 -0.08,-17.25 -0.18,-17.25l0.01,0l0.03,0.03z" class="cls-1" data-name="svg 1" id="svg_1"/>
  <path fill="#00fcfd" d="m19.14,31.35l-3.31,3.31c-0.22,0.22 -0.51,0.34 -0.82,0.34l-13.85,0c-0.64,0 -1.16,-0.52 -1.16,-1.16l0,-4.01l0.04,-2.36l0,0c1.03,-0.01 2.05,-0.02 3.08,-0.03l4.23,0c2.32,0 4.23,-0.08 4.23,-0.2c0,-0.1 -2.59,-2.79 -5.79,-5.97l-5.45,-5.45c-0.22,-0.21 -0.34,-0.51 -0.34,-0.82l0,-4.46c0,-2.71 0.08,-5 0.18,-5.1c0.1,-0.1 5.24,4.88 11.41,11.05l10.39,10.39c0.45,0.45 0.45,1.18 0,1.63l-2.83,2.83l0,0s0,0 0,0l-0.01,0.01z" class="cls-1" data-name="svg 2" id="svg_2"/>
 </g>
</svg>