<?xml version="1.0" encoding="UTF-8"?>
<svg id="Layer_1" xmlns="http://www.w3.org/2000/svg" version="1.1" viewBox="0 0 348.3 305.9">
  <!-- Generator: Adobe Illustrator 29.3.1, SVG Export Plug-In . SVG Version: 2.1.0 Build 151)  -->
  <defs>
    <style>
      .st0 {
        fill: #00fcfd;
      }
    </style>
  </defs>
  <path id="svg_1" class="st0" d="M343.7,7.5c-1.1,0-25.3,23.5-54,52.2l-45.4,45.4c-3.9,3.9-10.1,3.9-14,0l-47.6-47.6L131,6.1c-1.9-1.9-4.4-2.9-7-2.9h-57.2c-8.7,0-13.1,10.4-7.2,16.7.4.4.8.8,1.1,1.2.1.1.2.2.4.3.2.2.3.3.4.5.3.4.7.8,1.1,1.1.2.2.5.4.7.6.1.2.3.3.4.5,0,0,0,0,0,0,.1.1.2.2.3.3.1.1.3.2.4.4.2.2.3.3.4.5.6.6,1.1,1.2,1.7,1.8.3.3.7.7,1,1.1.2.2.4.4.6.6.2.2.4.4.6.7.5.6,1.1,1.2,1.6,1.7.2.2.3.4.5.5h0c.3.3.6.6.8.9h0c.2.2.3.4.5.5s.3.3.5.5c.1.1.2.3.3.4h0c.9,1,1.8,1.9,2.8,3,0,0,0,0,.2.1h0s0,0,0,0h0c0,0,.1.2.2.3,3.6,3.8,7.4,7.9,11.6,12.3,0,0,.1.1.2.2,14.4,15.3,32.4,34.4,53.2,56.6l89,89c3.9,3.9,10.1,3.9,14,0l13.1-13.1c11-10.8,20.7-19.9,21.6-19.9s1.7,31.3,1.9,69.5l.6,60.1c0,5.4,4.4,9.7,9.7,9.8l22.3.5,21.6.4c5.5.1,10.1-4.4,10.1-9.9v-137.9c0-81.4-.6-147.8-1.5-147.8h0Z"/>
  <path id="svg_2" class="st0" d="M168.2,271.9l-28.4,28.4c-1.9,1.9-4.4,2.9-7,2.9H14.1c-5.5,0-9.9-4.4-9.9-9.9v-34.3l.4-20.3h0c8.8,0,17.6-.2,26.4-.2h36.3c19.9,0,36.3-.6,36.3-1.7s-22.2-24-49.6-51.2L7.1,138.8c-1.9-1.9-2.9-4.4-2.9-7v-38.2c0-23.3.6-42.9,1.5-43.8.9-.9,44.9,41.9,97.8,94.7l89,89c3.9,3.9,3.9,10.1,0,14l-24.3,24.3h0s0,0,0,0Z"/>
</svg>