<svg width="28.41" height="25" xmlns="http://www.w3.org/2000/svg" data-name="Layer 1">

 <g>
  <title>Layer 1</title>
  <path fill="#00fcfd" d="m28.29,0.36c-0.09,0 -2.1,1.96 -4.5,4.35l-3.79,3.79c-0.32,0.32 -0.85,0.32 -1.17,0l-3.97,-3.97l-4.3,-4.29c-0.15,-0.15 -0.36,-0.24 -0.58,-0.24l-4.77,0c-0.72,0 -1.1,0.86 -0.6,1.39c0.03,0.04 0.06,0.07 0.1,0.1c0.01,0 0.02,0.02 0.03,0.03c0.01,0.01 0.02,0.03 0.04,0.04c0.03,0.03 0.06,0.06 0.09,0.09c0.02,0.02 0.04,0.03 0.06,0.05c0.01,0.01 0.02,0.03 0.03,0.04c0,0 0,0 0,0c0,0.01 0.02,0.02 0.03,0.03c0.01,0.01 0.02,0.02 0.03,0.03c0.01,0.01 0.03,0.03 0.03,0.04c0.05,0.05 0.09,0.1 0.14,0.15c0.03,0.03 0.06,0.06 0.08,0.09c0.02,0.02 0.03,0.03 0.05,0.05c0.02,0.02 0.03,0.04 0.05,0.06c0.04,0.05 0.09,0.1 0.14,0.15c0.01,0.01 0.03,0.03 0.04,0.04l0,0s0.05,0.05 0.07,0.08l0,0s0.03,0.03 0.04,0.04s0.03,0.03 0.04,0.04c0.01,0.01 0.02,0.02 0.03,0.04l0,0c0.08,0.08 0.15,0.16 0.23,0.25c0,0 0,0 0.01,0l0,0s0,0 0,0l0,0s0.01,0.01 0.02,0.02c0.3,0.31 0.62,0.66 0.97,1.03c0,0 0.01,0.01 0.02,0.02c1.2,1.28 2.7,2.87 4.44,4.72l7.42,7.42c0.32,0.32 0.85,0.32 1.17,0l1.09,-1.09c0.92,-0.9 1.73,-1.65 1.8,-1.65c0.05,0 0.14,2.61 0.16,5.79l0.05,5.01c0,0.45 0.36,0.81 0.81,0.82l1.86,0.04l1.8,0.04c0.46,0 0.84,-0.36 0.84,-0.83l0,-11.49c0,-6.78 -0.05,-12.32 -0.13,-12.32l0,0z" class="cls-1" data-name="svg 1" id="svg_1"/>
  <path fill="#00fcfd" d="m13.67,22.39l-2.37,2.37c-0.15,0.15 -0.37,0.24 -0.58,0.24l-9.89,0c-0.46,0 -0.83,-0.37 -0.83,-0.83l0,-2.86l0.03,-1.69l0,0c0.73,0 1.47,-0.01 2.2,-0.02l3.02,0c1.65,0 3.02,-0.05 3.02,-0.14c0,-0.07 -1.85,-2 -4.14,-4.26l-3.89,-3.9c-0.15,-0.15 -0.24,-0.36 -0.24,-0.58l0,-3.18c0,-1.95 0.05,-3.58 0.13,-3.66c0.07,-0.07 3.74,3.49 8.15,7.9l7.42,7.42c0.32,0.32 0.32,0.85 0,1.17l-2.02,2.02l0,0s0,0 0,0l-0.01,0z" class="cls-1" data-name="svg 2" id="svg_2"/>
 </g>
</svg>