<svg width="56.82" height="50" xmlns="http://www.w3.org/2000/svg" data-name="Layer 1">

 <g>
  <title>Layer 1</title>
  <path fill="#00fcfd" d="m56.58,0.72c-0.18,0 -4.21,3.92 -8.99,8.71l-7.57,7.57c-0.64,0.64 -1.69,0.64 -2.33,0l-7.93,-7.93l-8.63,-8.59c-0.31,-0.31 -0.73,-0.48 -1.17,-0.48l-9.54,0c-1.44,0 -2.19,1.73 -1.21,2.78c0.06,0.07 0.13,0.14 0.19,0.21c0.02,0.02 0.04,0.04 0.06,0.06c0.03,0.03 0.05,0.06 0.07,0.09c0.06,0.06 0.12,0.13 0.18,0.19c0.04,0.03 0.08,0.06 0.12,0.1c0.02,0.03 0.04,0.06 0.06,0.09c0,0 0,0 0,0c0.02,0.02 0.04,0.04 0.05,0.06c0.02,0.02 0.05,0.04 0.07,0.06c0.03,0.03 0.05,0.05 0.07,0.09c0.09,0.1 0.19,0.2 0.28,0.3c0.05,0.06 0.11,0.12 0.17,0.18c0.04,0.03 0.07,0.07 0.1,0.1c0.04,0.03 0.07,0.07 0.1,0.11c0.09,0.09 0.18,0.19 0.27,0.29c0.03,0.03 0.05,0.06 0.08,0.09l0,0c0.05,0.05 0.09,0.1 0.14,0.15l0,0s0.06,0.06 0.08,0.09s0.05,0.05 0.08,0.08c0.02,0.02 0.04,0.05 0.06,0.07l0,0c0.15,0.16 0.31,0.32 0.46,0.49c0,0 0.01,0.01 0.03,0.02l0,0s0,0 0,0l0,0s0.02,0.03 0.03,0.04c0.59,0.63 1.24,1.32 1.93,2.05c0.01,0.01 0.02,0.02 0.03,0.03c2.41,2.56 5.4,5.74 8.87,9.43l14.84,14.84c0.64,0.64 1.69,0.64 2.33,0l2.18,-2.18c1.83,-1.8 3.45,-3.31 3.6,-3.31c0.11,0 0.29,5.22 0.32,11.58l0.09,10.01c0,0.89 0.73,1.62 1.62,1.64l3.72,0.08l3.6,0.07c0.92,0.02 1.69,-0.73 1.69,-1.65l0,-22.99c0,-13.56 -0.11,-24.64 -0.25,-24.64l0.01,0l0.04,0.02z" class="cls-1" data-name="svg 1" id="svg_1"/>
  <path fill="#00fcfd" d="m27.34,44.78l-4.73,4.73c-0.31,0.31 -0.73,0.49 -1.17,0.49l-19.79,0c-0.91,0 -1.65,-0.74 -1.65,-1.65l0,-5.72l0.06,-3.38l0,0c1.47,-0.01 2.93,-0.03 4.4,-0.04l6.04,0c3.31,0 6.04,-0.11 6.04,-0.29c0,-0.14 -3.71,-3.99 -8.27,-8.53l-7.78,-7.79c-0.31,-0.31 -0.49,-0.73 -0.49,-1.16l0,-6.37c0,-3.89 0.11,-7.16 0.25,-7.3c0.14,-0.14 7.48,6.98 16.29,15.79l14.84,14.84c0.64,0.64 0.64,1.69 0,2.33l-4.05,4.05l0,0s0,0 0,0l0.01,0z" class="cls-1" data-name="svg 2" id="svg_2"/>
 </g>
</svg>