<svg width="400" height="351.99" xmlns="http://www.w3.org/2000/svg" data-name="Layer 1">

 <g>
  <title>Layer 1</title>
  <path fill="#00fcfd" d="m398.32999,5.06c-1.26999,0 -29.63,27.6 -63.31,61.28l-53.29999,53.3c-4.53,4.53 -11.90002,4.53 -16.43002,0l-55.83998,-55.84l-60.7,-60.41c-2.17999,-2.18 -5.12,-3.39 -8.2,-3.39l-67.13,0c-10.15,0 -15.42,12.15 -8.48,19.57c0.46,0.51 0.89,0.96 1.34,1.44c0.15,0.13 0.28,0.25 0.43,0.41c0.2,0.18 0.33,0.41 0.51,0.61c0.41,0.43 0.84,0.89 1.24,1.32c0.28,0.23 0.58,0.46 0.81,0.73c0.15,0.2 0.3,0.41 0.46001,0.61c0,0 0,0.03 0.03,0.05c0.13,0.15 0.25,0.28 0.38,0.41c0.15,0.15 0.33,0.28 0.48,0.43c0.2,0.18 0.35,0.38 0.48,0.61c0.66,0.71 1.32,1.42 1.95,2.1c0.38,0.41 0.78999,0.84 1.16,1.24c0.25,0.23 0.48,0.48 0.73,0.73c0.25,0.23 0.48,0.51 0.68,0.79c0.63,0.66 1.27,1.37 1.92,2.05c0.2,0.2 0.38,0.43 0.58,0.61l0,0.03c0.32999,0.35 0.66,0.71 0.99,1.06l0.05,0.05l0.57999,0.58c0.18,0.18 0.38,0.35 0.56001,0.56c0.14999,0.15 0.28,0.33 0.41,0.51l0,0c1.06,1.14 2.15,2.28 3.27,3.47c0.05,0.05 0.1,0.08 0.18,0.13l0,0s0.03,0.03 0.05,0.05l0,0c0.08,0.1 0.15,0.2 0.23,0.3c4.18,4.43 8.71,9.27 13.6,14.43c0.08,0.08 0.15,0.15 0.23,0.23c16.94,18 38.01,40.39 62.47001,66.4l104.46001,104.46c4.53,4.53 11.89999,4.53 16.42999,0l15.32001,-15.32001c12.90997,-12.65999 24.31,-23.29999 25.31998,-23.29999c0.76001,0 2.03,36.72 2.28,81.54001l0.66,70.5c0.05002,6.28 5.12,11.39999 11.39999,11.51999l26.18002,0.53l25.35001,0.51001c6.50998,0.12997 11.87997,-5.12003 11.87997,-11.62003l0,-161.83998c0,-95.46999 -0.75998,-173.46001 -1.76999,-173.46001l0.10001,0.05l0,0l-0.02002,-0.02z" class="cls-1" data-name="svg 1" id="svg_1"/>
  <path fill="#00fcfd" d="m192.45,315.26999l-33.3,33.29999c-2.17999,2.18002 -5.14,3.42001 -8.23,3.42001l-139.3,0c-6.43,0 -11.62,-5.22 -11.62,-11.62l0,-40.29001l0.43,-23.78l0,0c10.33,-0.10001 20.64,-0.17999 30.97,-0.28l42.54,0c23.3,0 42.54,-0.76001 42.54,-2.03c0,-1.01001 -26.08,-28.11 -58.24,-60.02l-54.82,-54.83998c-2.18,-2.18001 -3.42,-5.14 -3.42,-8.23001l0,-44.82001c0,-27.34998 0.76,-50.39999 1.77,-51.40999c1.01,-1.01 52.67,49.13 114.71,111.17l104.46,104.45999c4.53,4.53 4.53,11.90002 0,16.43002l-28.49001,28.48999l0,0.04999l0,0z" class="cls-1" data-name="svg 2" id="svg_2"/>
 </g>
</svg>