<svg width="158" height="139.01" xmlns="http://www.w3.org/2000/svg" data-name="Layer 1">
 <g>
  <title>Layer 1</title>
  <path class="cls-1" d="m157.3,2c-0.5,0 -11.7,10.9 -25,24.2l-21.05,21.05c-1.79,1.79 -4.7,1.79 -6.49,0l-22.05,-22.05l-23.96999,-23.86c-0.86,-0.86 -2.02,-1.34 -3.24,-1.34l-26.51,0c-4.01,0 -6.09,4.8 -3.35,7.73c0.18,0.2 0.35,0.38 0.53,0.57c0.06,0.05 0.11,0.1 0.17,0.16c0.08,0.07 0.13,0.16 0.2,0.24c0.16,0.17 0.33,0.35 0.49,0.52c0.11,0.09 0.23,0.18 0.32,0.29c0.06,0.08 0.12,0.16 0.18,0.24c0,0 0,0.01 0.01,0.02c0.05,0.06 0.1,0.11 0.15,0.16c0.06,0.06 0.13,0.11 0.19,0.17c0.08,0.07 0.14,0.15 0.19,0.24c0.26,0.28 0.52,0.56 0.77,0.83c0.15,0.16 0.31,0.33 0.46,0.49c0.1,0.09 0.19,0.19 0.29,0.29c0.1,0.09 0.19,0.2 0.27,0.31c0.25,0.26 0.5,0.54 0.76,0.81c0.08,0.08 0.15,0.17 0.23,0.24c0,0 0,0 0,0.01c0.13,0.14 0.26,0.28 0.39,0.42c0,0 0.01,0.01 0.02,0.02c0.08,0.08 0.16,0.16 0.23,0.23c0.07,0.07 0.15,0.14 0.22,0.22c0.06,0.06 0.11,0.13 0.16,0.2c0,0 0,0 0,0c0.42,0.45 0.85,0.9 1.29,1.37c0.02,0.02 0.04,0.03 0.07,0.05c0,0 0,0 0,0c0,0 0.01,0.01 0.02,0.02c0,0 0,0 0,0c0,0 0,0 0,0c0.03,0.04 0.06,0.08 0.09,0.12c1.65,1.75 3.44,3.66 5.37,5.7c0.03,0.03 0.06,0.06 0.09,0.09c6.69,7.11 15.01,15.95 24.67,26.22l41.25,41.25c1.79,1.78999 4.7,1.78999 6.49,0l6.05,-6.05c5.1,-5 9.6,-9.2 10,-9.2c0.3,0 0.8,14.5 0.89999,32.2l0.25999,27.84c0.02,2.48 2.02,4.5 4.5,4.55l10.34,0.20998l10.01001,0.20001c2.56999,0.04999 4.69,-2.01999 4.69,-4.59001l0,-63.91c0,-37.7 -0.3,-68.5 -0.70001,-68.5l0.04001,0.02l0,0.00001z" fill="#00fcfd" id="svg_1"/>
  <path class="cls-1" d="m76,124.5l-13.15,13.14999c-0.86,0.86 -2.03,1.35001 -3.25,1.35001l-55.01,0c-2.54,0 -4.59,-2.06 -4.59,-4.59l0,-15.91l0.17,-9.39l0,0c4.08,-0.04 8.15,-0.07 12.23,-0.11l16.8,0c9.2,0 16.8,-0.3 16.8,-0.8c0,-0.39999 -10.3,-11.1 -23,-23.7l-21.65,-21.66c-0.86,-0.86 -1.35,-2.03 -1.35,-3.25l0,-17.7c0,-10.8 0.3,-19.9 0.7,-20.3c0.4,-0.4 20.8,19.4 45.3,43.9l41.25,41.25c1.79,1.79 1.79,4.7 0,6.49001l-11.25,11.25l0,0.02l0,-0.00001z" fill="#00fcfd" id="svg_2"/>
 </g>

</svg>