<svg width="284.1" height="250" xmlns="http://www.w3.org/2000/svg" data-name="Layer 1">

 <g>
  <title>Λογότυπο</title>
  <path fill="#00fcfd" d="m282.91,3.6c-0.89999,0 -21.04001,19.6 -44.96001,43.53l-37.86,37.86c-3.22,3.22 -8.45,3.22 -11.67,0l-39.66,-39.66l-43.10999,-42.92c-1.55,-1.55 -3.63,-2.41 -5.83,-2.41l-47.68,0c-7.21,0 -10.95,8.63 -6.03,13.9c0.32,0.36 0.63,0.68 0.95,1.03c0.11,0.09 0.2,0.18 0.31,0.29c0.14,0.13 0.23,0.29 0.36,0.43c0.29,0.31 0.59,0.63 0.88,0.94c0.2,0.16 0.41,0.32 0.58,0.52c0.11,0.14 0.22,0.29 0.32,0.43c0,0 0,0.02 0.02,0.04c0.09,0.11 0.18,0.2 0.27,0.29c0.11,0.11 0.23,0.2 0.34,0.31c0.14,0.13 0.25,0.27 0.34,0.43c0.47,0.5 0.94,1.01 1.38,1.49c0.27,0.29 0.56,0.59 0.83,0.88c0.18,0.16 0.34,0.34 0.52,0.52c0.18,0.16 0.34,0.36 0.49,0.56c0.45,0.47 0.9,0.97 1.37,1.46c0.14,0.14 0.27,0.31 0.41,0.43l0,0.02c0.23,0.25 0.47,0.5 0.7,0.76l0.04,0.04l0.41,0.41c0.13,0.13 0.27,0.25 0.4,0.4c0.11,0.11 0.2,0.23 0.29,0.36l0,0c0.76,0.81 1.53,1.62 2.32,2.46c0.04,0.04 0.07,0.05 0.13,0.09l0,0s0.02,0.02 0.04,0.04l0,0c0.05,0.07 0.11,0.14 0.16,0.22c2.97,3.15 6.19,6.58 9.66,10.25c0.05,0.05 0.11,0.11 0.16,0.16c12.03,12.79 27,28.69 44.37,47.16l74.19,74.18999c3.22,3.22 8.45,3.22 11.67,0l10.87999,-10.87999c9.17001,-8.99001 17.27,-16.55 17.99001,-16.55c0.53999,0 1.44,26.08 1.62,57.91l0.47,50.06999c0.04001,4.46001 3.63,8.09 8.09001,8.18001l18.60001,0.37999l18,0.36c4.62,0.09001 8.43997,-3.62999 8.43997,-8.25999l0,-114.94999c0,-67.81 -0.53998,-123.2 -1.25998,-123.2l0.07001,0.04l0,0l-0.01001,-0.01001z" class="cls-1" data-name="svg 1" id="svg_1"/>
  <path fill="#00fcfd" d="m136.69,223.92l-23.65,23.65001c-1.55,1.54999 -3.65,2.42999 -5.85,2.42999l-98.93,0c-4.57,0 -8.26,-3.71001 -8.26,-8.25999l0,-28.62001l0.31,-16.89l0,0c7.34,-0.06999 14.66,-0.12999 22,-0.2l30.22,0c16.55,0 30.22,-0.53999 30.22,-1.44c0,-0.72 -18.53,-19.95999 -41.37,-42.62999l-38.95,-38.94001c-1.55,-1.55 -2.43,-3.64999 -2.43,-5.84l0,-31.83c0,-19.43 0.54,-35.8 1.26,-36.52c0.72,-0.72 37.41,34.89 81.47,78.96l74.18999,74.18999c3.22,3.22 3.22,8.45 0,11.67l-20.23,20.23001l0,0.03999l0,0z" class="cls-1" data-name="svg 2" id="svg_2"/>
 </g>
</svg>