<svg width="227.28" height="200" xmlns="http://www.w3.org/2000/svg" data-name="Layer 1">

 <g>
  <title>Λογότυπο</title>
  <path fill="#00fcfd" d="m226.33,2.88c-0.72,0 -16.83,15.68 -35.97,34.82l-30.28999,30.29c-2.58,2.58 -6.76001,2.58 -9.34001,0l-31.73,-31.73l-34.48,-34.33c-1.24,-1.24 -2.91,-1.93 -4.66,-1.93l-38.14,0c-5.77,0 -8.76,6.91 -4.82,11.12c0.26,0.29 0.5,0.55 0.76,0.82c0.09,0.07 0.16,0.14 0.24,0.23c0.12,0.1 0.19,0.23 0.29,0.35c0.23,0.24 0.47,0.5 0.71,0.75c0.16,0.13 0.33,0.26 0.46,0.42c0.09,0.12 0.17,0.23 0.26,0.35c0,0 0,0.01 0.01,0.03c0.07,0.09 0.14,0.16 0.22,0.23c0.09,0.09 0.19,0.16 0.27,0.24c0.12,0.1 0.2,0.22 0.27,0.35c0.37,0.4 0.75,0.81 1.11,1.19c0.22,0.23 0.45,0.47 0.66,0.71c0.14,0.13 0.27,0.27 0.42,0.42c0.14,0.13 0.27,0.29 0.39,0.45c0.36,0.37 0.72,0.78 1.09,1.17c0.12,0.12 0.22,0.24 0.33,0.35l0,0c0.19,0.22 0.37,0.42 0.56,0.62l0.03,0.03l0.33,0.33c0.1,0.1 0.22,0.2 0.32,0.32c0.09,0.09 0.16,0.19 0.23,0.29l0,0c0.6,0.65 1.22,1.29 1.86,1.97c0.03,0.03 0.06,0.04 0.1,0.07l0,0s0.01,0.01 0.03,0.03l0,0c0.04,0.06 0.09,0.12 0.13,0.17c2.37,2.52 4.95,5.27 7.73,8.2c0.04,0.04 0.09,0.09 0.13,0.13c9.63,10.23 21.6,22.95 35.5,37.73l59.35001,59.35c2.58,2.58 6.75999,2.58 9.34,0l8.71001,-8.71c7.34,-7.19 13.81,-13.24 14.39,-13.24c0.42999,0 1.14999,20.86 1.28999,46.33l0.37,40.06c0.03001,3.56999 2.91,6.47 6.47,6.55l14.88,0.3l14.39999,0.28999c3.70001,0.07001 6.75,-2.91 6.75,-6.60001l0,-91.95999c0,-54.24 -0.42999,-98.55999 -1.00999,-98.55999l0.06,0.03l0,0l-0.00999,-0.03001z" class="cls-1" data-name="svg 1" id="svg_1"/>
  <path fill="#00fcfd" d="m109.35,179.14l-18.92,18.92c-1.24,1.24001 -2.92,1.94 -4.68,1.94l-79.15,0c-3.65,0 -6.6,-2.96001 -6.6,-6.60001l0,-22.89l0.24,-13.50999l0,0c5.87,-0.06 11.73,-0.10001 17.6,-0.16l24.17,0c13.24,0 24.17,-0.42999 24.17,-1.14999c0,-0.58 -14.82,-15.97 -33.09,-34.10001l-31.15,-31.17c-1.23,-1.24 -1.94,-2.92 -1.94,-4.68l0,-25.47c0,-15.54 0.43,-28.63 1.01,-29.21c0.58,-0.58 29.93,27.91 65.18,63.17l59.35,59.35c2.57999,2.58 2.57999,6.75999 0,9.34l-16.19,16.19l0,0.03l0,0z" class="cls-1" data-name="svg 2" id="svg_2"/>
 </g>
</svg>