<svg width="113.64" height="100" xmlns="http://www.w3.org/2000/svg" data-name="Layer 1">

 <g>
  <title>Layer 1</title>
  <path fill="#00fcfd" d="m113.17,1.44c-0.36,0 -8.42,7.84 -17.99,17.41l-15.14,15.14c-1.29,1.29 -3.38,1.29 -4.67,0l-15.86,-15.86l-17.25,-17.17c-0.62,-0.62 -1.45,-0.96 -2.33,-0.96l-19.07,0c-2.88,0 -4.38,3.45 -2.41,5.56c0.13,0.14 0.25,0.27 0.38,0.41c0.04,0.04 0.08,0.07 0.12,0.12c0.06,0.05 0.09,0.12 0.14,0.17c0.12,0.12 0.24,0.25 0.35,0.37c0.08,0.06 0.17,0.13 0.23,0.21c0.04,0.06 0.09,0.12 0.13,0.17c0,0 0,0 0,0.01c0.04,0.04 0.07,0.08 0.11,0.12c0.04,0.04 0.09,0.08 0.14,0.12c0.06,0.05 0.1,0.11 0.14,0.17c0.19,0.2 0.37,0.4 0.55,0.6c0.11,0.12 0.22,0.24 0.33,0.35c0.07,0.06 0.14,0.14 0.21,0.21c0.07,0.06 0.14,0.14 0.19,0.22c0.18,0.19 0.36,0.39 0.55,0.58c0.06,0.06 0.11,0.12 0.17,0.17l0,0c0.09,0.11 0.19,0.21 0.28,0.31l0.01,0c0.06,0.07 0.12,0.13 0.17,0.18s0.11,0.1 0.16,0.16c0.04,0.04 0.08,0.09 0.12,0.14l0,0c0.3,0.32 0.61,0.65 0.93,0.99c0.01,0.01 0.03,0.02 0.05,0.04l0,0s0,0 0.01,0.01l0,0s0.04,0.06 0.06,0.09c1.19,1.26 2.47,2.63 3.86,4.1c0.02,0.02 0.04,0.04 0.06,0.06c4.81,5.12 10.8,11.47 17.75,18.86l29.68,29.68c1.29,1.29 3.38,1.29 4.67,0l4.35,-4.35c3.67,-3.6 6.91,-6.62 7.19,-6.62c0.22,0 0.58,10.43 0.65,23.17l0.18999,20.03001c0.01,1.78 1.45,3.24 3.24001,3.27l7.43999,0.15l7.2,0.14c1.85,0.04 3.37,-1.45 3.37,-3.3l0,-45.98c0,-27.12 -0.21999,-49.28 -0.5,-49.28l0.03001,0l0.00999,0.03z" class="cls-1" data-name="svg 1" id="svg_1"/>
  <path fill="#00fcfd" d="m54.68,89.57l-9.46,9.46c-0.62,0.62 -1.46,0.97 -2.34,0.97l-39.58,0c-1.83,0 -3.3,-1.48 -3.3,-3.3l0,-11.45l0.12,-6.76l0,0c2.94,-0.03 5.86,-0.05 8.8,-0.07999l12.09,0c6.62,0 12.09,-0.22 12.09,-0.58c0,-0.29 -7.41,-7.99001 -16.55,-17.05l-15.58,-15.57c-0.62,-0.62 -0.97,-1.46 -0.97,-2.34l0,-12.73c0,-7.77 0.22,-14.32 0.5,-14.61c0.29,-0.29 14.96,13.96 32.59,31.58l29.68,29.68c1.29,1.29 1.29,3.38 0,4.67l-8.09,8.09l0,0s0,0.00999 0,0.00999l0,0.01z" class="cls-1" data-name="svg 2" id="svg_2"/>
 </g>
</svg>