<svg width="85.23" height="75" xmlns="http://www.w3.org/2000/svg" data-name="Layer 1">

 <g>
  <title>Layer 1</title>
  <path fill="#00fcfd" d="m84.87,1.08c-0.27,0 -6.31001,5.88 -13.49001,13.06l-11.36,11.36c-0.97,0.97 -2.54,0.97 -3.5,0l-11.9,-11.9l-12.93,-12.88c-0.46,-0.46 -1.09,-0.72 -1.75,-0.72l-14.3,0c-2.16,0 -3.29,2.59 -1.81,4.17c0.1,0.11 0.19,0.21 0.29,0.31c0.03,0.03 0.06,0.05 0.09,0.09c0.04,0.04 0.07,0.09 0.11,0.13c0.09,0.09 0.18,0.19 0.26,0.28c0.06,0.05 0.12,0.1 0.17,0.16c0.03,0.04 0.06,0.09 0.1,0.13c0,0 0,0 0,0.01c0.03,0.03 0.05,0.06 0.08,0.09c0.03,0.03 0.07,0.06 0.1,0.09c0.04,0.04 0.08,0.08 0.1,0.13c0.14,0.15 0.28,0.3 0.42,0.45c0.08,0.09 0.17,0.18 0.25,0.26c0.05,0.05 0.1,0.1 0.16,0.16c0.05,0.05 0.1,0.11 0.15,0.17c0.13,0.14 0.27,0.29 0.41,0.44c0.04,0.04 0.08,0.09 0.12,0.13l0,0c0.07,0.08 0.14,0.16 0.21,0.23l0.01,0c0.04,0.05 0.09,0.1 0.12,0.13s0.08,0.08 0.12,0.12c0.03,0.03 0.06,0.07 0.09,0.11l0,0c0.23,0.24 0.46,0.49 0.7,0.74c0.01,0.01 0.02,0.02 0.04,0.03l0,0s0,0 0.01,0.01l0,0s0.03,0.04 0.05,0.06c0.89,0.94 1.86,1.97 2.9,3.08c0.02,0.02 0.03,0.03 0.05,0.05c3.61,3.84 8.1,8.61 13.31,14.15l22.26,22.26c0.97,0.97 2.54,0.97 3.5,0l3.26,-3.26c2.75,-2.7 5.18,-4.96 5.4,-4.96c0.16,0 0.43,7.82 0.49001,17.37l0.14,15.02c0.00999,1.34 1.09,2.43 2.43,2.46001l5.57999,0.11l5.4,0.10999c1.39,0.03001 2.53,-1.09 2.53,-2.48l0,-34.48c0,-20.34 -0.16,-36.96 -0.38,-36.96l0.02,0l-0.00999,-0.02z" class="cls-1" data-name="svg 1" id="svg_1"/>
  <path fill="#00fcfd" d="m41.01,67.18l-7.1,7.1c-0.46,0.46 -1.1,0.73 -1.75,0.73l-29.68,0c-1.37,0 -2.48,-1.11 -2.48,-2.48l0,-8.58l0.09,-5.07l0,0c2.2,-0.02 4.4,-0.04 6.6,-0.06l9.06,0c4.96,0 9.06,-0.16 9.06,-0.43c0,-0.22 -5.56,-5.99 -12.41,-12.79l-11.67,-11.69c-0.47,-0.47 -0.73,-1.1 -0.73,-1.76l0,-9.55c0,-5.82 0.16,-10.73 0.38,-10.95c0.22,-0.22 11.22,10.47 24.44,23.69l22.26,22.26c0.97,0.97 0.97,2.54 0,3.5l-6.07,6.07l0,0s0,0.01 0,0.01z" class="cls-1" data-name="svg 2" id="svg_2"/>
 </g>
</svg>