<?xml version="1.0" encoding="UTF-8"?>
<svg id="Layer_1" data-name="Layer 1" xmlns="http://www.w3.org/2000/svg" viewBox="0 0 158 139.01">
  <defs>
    <style>
      .cls-1 {
        fill: #00fcfd;
      }
    </style>
  </defs>
  <path class="cls-1" d="M157.3,2c-.5,0-11.7,10.9-25,24.2l-21.05,21.05c-1.79,1.79-4.7,1.79-6.49,0l-22.05-22.05L58.74,1.34C57.88.48,56.72,0,55.5,0h-26.51c-4.01,0-6.09,4.8-3.35,7.73.18.2.35.38.53.57.06.05.11.1.17.16.08.07.13.16.2.24.16.17.33.35.49.52.11.09.23.18.32.29.06.08.12.16.18.24,0,0,0,.01.01.02.05.06.1.11.15.16.06.06.13.11.19.17.08.07.14.15.19.24.26.28.52.56.77.83.15.16.31.33.46.49.1.09.19.19.29.29.1.09.19.2.27.31.25.26.5.54.76.81.08.08.15.17.23.24,0,0,0,0,0,.01.13.14.26.28.39.42,0,0,.01.01.02.02.08.08.16.16.23.23.07.07.15.14.22.22.06.06.11.13.16.2,0,0,0,0,0,0,.42.45.85.9,1.29,1.37.02.02.04.03.07.05,0,0,0,0,0,0,0,0,.01.01.02.02,0,0,0,0,0,0,0,0,0,0,0,0,.03.04.06.08.09.12,1.65,1.75,3.44,3.66,5.37,5.7.03.03.06.06.09.09,6.69,7.11,15.01,15.95,24.67,26.22l41.25,41.25c1.79,1.79,4.7,1.79,6.49,0l6.05-6.05c5.1-5,9.6-9.2,10-9.2.3,0,.8,14.5.9,32.2l.26,27.84c.02,2.48,2.02,4.5,4.5,4.55l10.34.21,10.01.2c2.57.05,4.69-2.02,4.69-4.59v-63.91c0-37.7-.3-68.5-.7-68.5Z"/>
  <path class="cls-1" d="M76,124.5l-13.15,13.15c-.86.86-2.03,1.35-3.25,1.35H4.59c-2.54,0-4.59-2.06-4.59-4.59v-15.91l.17-9.39H.17c4.08-.04,8.15-.07,12.23-.11h16.8c9.2,0,16.8-.3,16.8-.8,0-.4-10.3-11.1-23-23.7L1.35,62.84c-.86-.86-1.35-2.03-1.35-3.25v-17.7c0-10.8.3-19.9.7-20.3.4-.4,20.8,19.4,45.3,43.9l41.25,41.25c1.79,1.79,1.79,4.7,0,6.49l-11.25,11.25Z"/>
</svg>